<svg id="f_viber" xmlns="http://www.w3.org/2000/svg" width="28.375" height="28.375" viewBox="0 0 28.375 28.375">
  <rect id="Rectangle_31" data-name="Rectangle 31" width="28.375" height="28.375" transform="translate(0)" fill="none"/>
  <g id="viber" transform="translate(3.547 2.365)">
    <path id="Path_84" data-name="Path 84" d="M22.517,13.486c.7-5.85-.334-9.544-2.19-11.215h0c-3-2.853-13.112-3.275-16.7.128C2.023,4.063,1.456,6.506,1.394,9.531s-.136,8.694,5.146,10.231h0l0,2.348s-.036.951.572,1.143c.7.225,1.01-.216,3.171-2.8a19.781,19.781,0,0,0,6.707-.51c.73-.245,4.86-.791,5.528-6.459ZM10.639,18.8s-2.288,2.853-3,3.594c-.233.241-.488.218-.484-.259,0-.314.017-3.9.017-3.9C2.694,16.955,2.958,12.129,3.007,9.6S3.517,5.009,4.88,3.616C8.024.668,16.894,1.328,19.154,3.451c2.763,2.449,1.779,9.368,1.785,9.6-.568,4.731-3.915,5.031-4.53,5.236a18.25,18.25,0,0,1-5.77.511Z" transform="translate(-1.38 0.013)" fill="#fff"/>
    <path id="Path_85" data-name="Path 85" d="M12.214,4.3a.294.294,0,0,0,0,.587c2.9.022,5.287,2.043,5.314,5.75a.284.284,0,1,0,.568,0h0c-.031-3.994-2.638-6.311-5.881-6.333Z" transform="translate(-1.689 -0.113)" fill="#fff"/>
    <path id="Path_86" data-name="Path 86" d="M16.043,10.066a.284.284,0,1,0,.568.014,3.932,3.932,0,0,0-3.862-4.208.3.3,0,0,0-.04.587,3.351,3.351,0,0,1,3.334,3.607Z" transform="translate(-1.704 -0.159)" fill="#fff"/>
    <path id="Path_87" data-name="Path 87" d="M15.249,12.546a.9.9,0,0,0-1.17.168l-.422.547a.755.755,0,0,1-.615.241A5.634,5.634,0,0,1,9.333,9.666a.816.816,0,0,1,.232-.637l.528-.437a.972.972,0,0,0,.162-1.21A12.615,12.615,0,0,0,8.809,5.293a.781.781,0,0,0-1.05-.178H7.75c-.84.491-1.759,1.41-1.465,2.357.5,1,1.424,4.179,4.363,6.582a16.779,16.779,0,0,0,4.5,2.57l.009.014c.914.3,1.8-.65,2.278-1.515v-.007a.832.832,0,0,0-.167-1.074,11.444,11.444,0,0,0-2.015-1.5Z" transform="translate(-1.522 -0.133)" fill="#fff"/>
    <path id="Path_88" data-name="Path 88" d="M13.161,8.086c.933.054,1.385.542,1.434,1.542a.284.284,0,1,0,.568-.027,1.948,1.948,0,0,0-1.971-2.1A.294.294,0,0,0,13.161,8.086Z" transform="translate(-1.717 -0.207)" fill="#fff"/>
  </g>
</svg>
