<svg id="f_whatsapp" xmlns="http://www.w3.org/2000/svg" width="28.375" height="28.375" viewBox="0 0 28.375 28.375">
  <rect id="Rectangle_30" data-name="Rectangle 30" width="28.375" height="28.375" transform="translate(0 0)" fill="none"/>
  <g id="whatsapp_1_" data-name="whatsapp (1)" transform="translate(3.547 3.547)">
    <path id="Path_82" data-name="Path 82" d="M16.628,13.7l-.008.069c-2.031-1.012-2.244-1.147-2.506-.754-.182.273-.712.891-.872,1.073s-.322.194-.6.069a7.5,7.5,0,0,1-2.22-1.372,8.381,8.381,0,0,1-1.533-1.912c-.271-.467.3-.534.811-1.509a.508.508,0,0,0-.023-.484c-.069-.139-.621-1.5-.852-2.038s-.45-.471-.621-.471a1.375,1.375,0,0,0-1.264.318c-1.491,1.639-1.115,3.329.161,5.127,2.507,3.281,3.843,3.885,6.285,4.724a3.822,3.822,0,0,0,1.737.112,2.843,2.843,0,0,0,1.862-1.317,2.287,2.287,0,0,0,.166-1.316c-.068-.125-.249-.194-.527-.319Z" transform="translate(-0.455 -0.484)" fill="#fff"/>
    <path id="Path_83" data-name="Path 83" d="M18.956,3.186C11.853-3.68.1,1.3.093,10.987a10.934,10.934,0,0,0,1.473,5.492L0,22.171l5.852-1.526a11.058,11.058,0,0,0,16.319-9.653,10.9,10.9,0,0,0-3.229-7.77Zm1.369,7.776A9.2,9.2,0,0,1,6.457,18.817l-.333-.2-3.464.9.928-3.367-.221-.346A9.162,9.162,0,0,1,17.638,4.5a9.042,9.042,0,0,1,2.687,6.457Z" transform="translate(0 0)" fill="#fff"/>
  </g>
</svg>
