<svg xmlns="http://www.w3.org/2000/svg" width="44.028" height="44.028" viewBox="0 0 44.028 44.028">
  <g id="i1" transform="translate(-1 -1)">
    <path id="Path_107546" data-name="Path 107546" d="M45.028,39.891a1.468,1.468,0,0,0-1.468-1.468H2.468A1.468,1.468,0,0,0,1,39.891V43.56a1.468,1.468,0,0,0,1.468,1.468H43.56a1.468,1.468,0,0,0,1.468-1.468Zm-17.611-2.2V30.352a1.468,1.468,0,0,1,1.468-1.468h5.87a1.468,1.468,0,0,1,1.468,1.468V37.69h5.87V19.348a1.468,1.468,0,0,0-.776-1.294l-8.806-4.7a1.469,1.469,0,0,0-1.382,0L24.481,16.9V9.43a1.464,1.464,0,0,0-.558-1.151L15.118,1.317a1.464,1.464,0,0,0-1.82,0L4.493,8.279A1.464,1.464,0,0,0,3.935,9.43V37.69H27.417ZM17.7,24.841a1.467,1.467,0,0,0-1.468-1.468H12.187a1.467,1.467,0,0,0-1.468,1.468v4.043a1.467,1.467,0,0,0,1.468,1.468h4.042A1.467,1.467,0,0,0,17.7,28.884Zm0-12.294a1.467,1.467,0,0,0-1.468-1.468H12.187a1.467,1.467,0,0,0-1.468,1.468V16.59a1.467,1.467,0,0,0,1.468,1.468h4.042A1.467,1.467,0,0,0,17.7,16.59Z" fill="#e1a225" fill-rule="evenodd"/>
  </g>
</svg>
