<svg xmlns="http://www.w3.org/2000/svg" width="38.192" height="54.884" viewBox="0 0 38.192 54.884">
  <g id="i2" transform="translate(-13.044 -2.4)">
    <g id="Group_24031" data-name="Group 24031" transform="translate(13.044 2.4)">
      <path id="Path_107547" data-name="Path 107547" d="M46.458,88.895a4.034,4.034,0,0,0-.49-.712,2.039,2.039,0,0,1-.356-.579,7.6,7.6,0,0,1-.045-4.229c.623-3.472.49-4.407-.445-6.766a11.112,11.112,0,0,0-4.451-5.119l.4-1.157c.312-.8.623-1.781.757-2.137.045-.134.134-.267.223-.49l.045-.089c.089-.178.178-.4.267-.623a2.106,2.106,0,0,0-.178-1.87A1.983,1.983,0,0,0,40,64.368a3.337,3.337,0,0,0-.712.223.155.155,0,0,1-.045-.089,2.439,2.439,0,0,0-2.092-1.2h-.178a2.508,2.508,0,0,0-2.048,1.291l-.045.045a2.171,2.171,0,0,0-.134.312h-.668a2.549,2.549,0,0,0-2.448,1.024,2.162,2.162,0,0,0-.045,1.959c.134.267,1.335,2.137,1.959,3.071-.267.178-.49.356-.757.534a.971.971,0,0,0-.223.178A12.521,12.521,0,0,0,29.455,74.7c-2.448,3.472-2.048,6.232-1.558,8.725.045.134.045.267.089.4.089.534.223,1.068.267,1.6a3.655,3.655,0,0,1-.312,1.6c-.089.178-.223.356-.356.579-.134.178-.267.4-.4.623a1.274,1.274,0,0,0-.045,1.2,1.333,1.333,0,0,0,.935.757,7.493,7.493,0,0,0,2.226.045c.223,0,.4-.045.579-.045a9.186,9.186,0,0,1,2.626.4,13.317,13.317,0,0,0,1.424.356,10.275,10.275,0,0,0,1.647.134,20.454,20.454,0,0,0,3.739-.445.839.839,0,0,0,.356-.089c.134-.045.267-.045.4-.089a10.308,10.308,0,0,1,2-.267h.134c.312,0,.935-.045,1.469-.045,1.068-.045,1.469-.089,1.691-.49A.613.613,0,0,0,46.458,88.895ZM40.627,84a3.41,3.41,0,0,1-2.27,2.8c-.223.089-.49.178-.757.267-.089,0-.134.045-.223.045v2.092H35.686v-2a.565.565,0,0,1-.267-.045l-.935-.134a5.256,5.256,0,0,1-1.647-.623c-.178-.134-.267-.267-.178-.49l.267-.8.178-.534.49.267a5.063,5.063,0,0,0,2.671.668,2.64,2.64,0,0,0,1.024-.223,1.813,1.813,0,0,0,1.157-1.38,1.836,1.836,0,0,0-.757-1.736A6.086,6.086,0,0,0,36,81.283a7.3,7.3,0,0,1-2.137-1.2,3.113,3.113,0,0,1-1.113-2.448,3.362,3.362,0,0,1,1.246-2.582,3.9,3.9,0,0,1,1.736-.8l.134-.045V72.158h1.6v1.914c.089,0,.223.045.312.045a8.216,8.216,0,0,1,1.024.178,7.418,7.418,0,0,1,.89.356l.223.089a.359.359,0,0,1,.178.4c-.134.312-.223.623-.356.935l-.178.49-.178-.045a4.733,4.733,0,0,0-1.513-.534,3.8,3.8,0,0,0-1.87.045,1.473,1.473,0,0,0-1.068,1.2,1.374,1.374,0,0,0,.623,1.469,12.521,12.521,0,0,0,1.558.8,12.818,12.818,0,0,1,2.048,1.068A3.378,3.378,0,0,1,40.627,84Z" transform="translate(-24.395 -36.192)" fill="#e1a225"/>
      <path id="Path_107548" data-name="Path 107548" d="M59.311,3.157A33.1,33.1,0,0,1,57.4,10.724a24.357,24.357,0,0,1-4.14,6.989,12.123,12.123,0,0,1-8.591,4.229h-.045c-1.113.089-2.27.089-3.383.089a25.019,25.019,0,0,1-2.582-.089,2.3,2.3,0,0,1-.49-.089c-.089,0-.134-.089-.089-.178.757-.935,4.585-5.831,6.9-8.057,2.537-2.448,5.208-4.807,7.567-6.944a61.356,61.356,0,0,0-5.253,3.65c-1.691,1.335-3.338,2.76-4.941,4.229-.8.8-1.691,1.558-2.359,2.359-.579.712-1.2,1.335-1.781,2.048a11.1,11.1,0,0,0-1.558,2.226,15.412,15.412,0,0,0-1.424,5.074,9.371,9.371,0,0,0-.089,1.113,2.234,2.234,0,0,1-.089.534,4.839,4.839,0,0,0-1.157-.178h-.312a3.467,3.467,0,0,0-.935.178c.089-1.291.49-1.959.312-3.427a13.629,13.629,0,0,0-.223-1.424,7.956,7.956,0,0,0-.579-1.736,11.948,11.948,0,0,1-3.561.089,10.081,10.081,0,0,1-4.451-1.558,6.059,6.059,0,0,1-2.537-3.784,18.193,18.193,0,0,1-.4-6.009c.178-2,.356-3.962.534-5.965a.55.55,0,0,1,.712-.534c.49.089.935.223,1.424.356a20.86,20.86,0,0,1,5.03,2.137,7.871,7.871,0,0,1,3.383,4.1,17.14,17.14,0,0,1,.935,8.457A13.047,13.047,0,0,0,33,19.894a4.736,4.736,0,0,0,.4,1.113c.089.223.223.534.356.8.089.178.134.4.223.579a.633.633,0,0,0,.089-.267c.089-.267.178-.534.267-.757h0a16.111,16.111,0,0,1,2-3.16c.089-.089.089-.223.089-.4a7.469,7.469,0,0,1-.623-3.695,7.007,7.007,0,0,1,1.068-3.739A11.175,11.175,0,0,1,41.149,6.5a38.75,38.75,0,0,1,8.012-2.76c.4-.089.8-.223,1.2-.312a49.858,49.858,0,0,1,7.256-.979c.267,0,.579-.045.846-.045C59.088,2.4,59.4,2.712,59.311,3.157Z" transform="translate(-21.133 -2.4)" fill="#e1a225"/>
    </g>
  </g>
</svg>
