<svg xmlns="http://www.w3.org/2000/svg" width="58.178" height="57.207" viewBox="0 0 58.178 57.207">
  <g id="i3" transform="translate(-1.998 -3)">
    <path id="Path_107549" data-name="Path 107549" d="M31.852,37.69a3.278,3.278,0,0,0-3.12,2.294H28.1a.97.97,0,1,0,0,1.939h.625a3.269,3.269,0,1,0,3.123-4.233Zm0,4.586a1.328,1.328,0,0,1-1.327-1.309v-.024a1.327,1.327,0,1,1,1.327,1.333Z" transform="translate(-0.764 -1.054)" fill="#e1a225"/>
    <path id="Path_107550" data-name="Path 107550" d="M5.268,61.8A3.275,3.275,0,0,0,8.378,59.5h.634a.97.97,0,0,0,0-1.939H8.381A3.265,3.265,0,1,0,5.268,61.8Zm0-4.586a1.32,1.32,0,1,1-.938.383,1.324,1.324,0,0,1,.938-.383Z" transform="translate(0 -1.588)" fill="#e1a225"/>
    <path id="Path_107551" data-name="Path 107551" d="M14.653,49.195a.983.983,0,0,0-1.328-.368.97.97,0,0,0-.359,1.328,6.7,6.7,0,0,0,2.395,2.434,1.014,1.014,0,0,0,.495.126.951.951,0,0,0,.834-.475.97.97,0,0,0-.339-1.328,4.646,4.646,0,0,1-1.7-1.716Z" transform="translate(-0.329 -1.389)" fill="#e1a225"/>
    <path id="Path_107552" data-name="Path 107552" d="M16.01,42.707a1.012,1.012,0,0,0,.475-.116A4.722,4.722,0,0,1,18.841,42v-.97l-.087-.97a6.663,6.663,0,0,0-3.219.834.97.97,0,0,0-.368,1.319A.954.954,0,0,0,16.01,42.707Z" transform="translate(-0.396 -1.126)" fill="#e1a225"/>
    <path id="Path_107553" data-name="Path 107553" d="M28.827,52.6a.97.97,0,0,0-.97-.97H24.9a.97.97,0,1,0,0,1.939h2.957A.97.97,0,0,0,28.827,52.6Z" transform="translate(-0.666 -1.478)" fill="#e1a225"/>
    <path id="Path_107554" data-name="Path 107554" d="M13.05,47.643a.964.964,0,0,0,.97-.96,4.7,4.7,0,0,1,.65-2.327A.97.97,0,0,0,13,43.377a6.636,6.636,0,0,0-.921,3.287.97.97,0,0,0,.97.979Z" transform="translate(-0.306 -1.214)" fill="#e1a225"/>
    <path id="Path_107555" data-name="Path 107555" d="M12.24,59.569H15.2a.97.97,0,1,0,0-1.939H12.24a.97.97,0,1,0,0,1.939Z" transform="translate(-0.282 -1.66)" fill="#e1a225"/>
    <path id="Path_107556" data-name="Path 107556" d="M24.41,59.569h2.948a.97.97,0,1,0,0-1.939H24.41a.97.97,0,1,0,0,1.939Z" transform="translate(-0.652 -1.66)" fill="#e1a225"/>
    <path id="Path_107557" data-name="Path 107557" d="M40.987,52.6a.97.97,0,0,0-.97-.97H37.07a.97.97,0,0,0,0,1.939h2.948a.96.96,0,0,0,.97-.97Z" transform="translate(-1.036 -1.478)" fill="#e1a225"/>
    <path id="Path_107558" data-name="Path 107558" d="M48.75,59.569H51.7a.97.97,0,1,0,0-1.939H48.75a.97.97,0,1,0,0,1.939Z" transform="translate(-1.391 -1.66)" fill="#e1a225"/>
    <path id="Path_107559" data-name="Path 107559" d="M49.24,53.569h2.948a.97.97,0,0,0,0-1.939H49.24a.97.97,0,1,0,0,1.939Z" transform="translate(-1.406 -1.478)" fill="#e1a225"/>
    <path id="Path_107560" data-name="Path 107560" d="M54.83,59.569h2.957a.97.97,0,1,0,0-1.939H54.83a.97.97,0,1,0,0,1.939Z" transform="translate(-1.576 -1.66)" fill="#e1a225"/>
    <path id="Path_107561" data-name="Path 107561" d="M42.67,57.63a.97.97,0,1,0,0,1.939h2.948a.97.97,0,1,0,0-1.939Z" transform="translate(-1.207 -1.66)" fill="#e1a225"/>
    <path id="Path_107562" data-name="Path 107562" d="M55.32,53.569h2.569c.078.01.175.01.252.019a.64.64,0,0,0,.136.01.97.97,0,0,0,.126-1.93c-.175-.019-.339-.029-.514-.039H55.32a.97.97,0,0,0,0,1.939Z" transform="translate(-1.591 -1.478)" fill="#e1a225"/>
    <path id="Path_107563" data-name="Path 107563" d="M36.58,57.63a.97.97,0,1,0,0,1.939h2.948a.97.97,0,1,0,0-1.939Z" transform="translate(-1.021 -1.66)" fill="#e1a225"/>
    <path id="Path_107564" data-name="Path 107564" d="M25.887,41.03a.97.97,0,0,0-.97-.97H21.97a.97.97,0,0,0,0,1.939h2.948A.97.97,0,0,0,25.887,41.03Z" transform="translate(-0.577 -1.126)" fill="#e1a225"/>
    <path id="Path_107565" data-name="Path 107565" d="M22.737,52.6a.97.97,0,0,0-.97-.97H18.82a.97.97,0,0,0,.019,1.939h2.928A.97.97,0,0,0,22.737,52.6Z" transform="translate(-0.482 -1.478)" fill="#e1a225"/>
    <path id="Path_107566" data-name="Path 107566" d="M18.33,57.63a.97.97,0,1,0,0,1.939h2.948a.97.97,0,1,0,0-1.939Z" transform="translate(-0.467 -1.66)" fill="#e1a225"/>
    <path id="Path_107567" data-name="Path 107567" d="M30.5,57.63a.97.97,0,1,0,0,1.939h2.948a.97.97,0,1,0,0-1.939Z" transform="translate(-0.837 -1.66)" fill="#e1a225"/>
    <path id="Path_107568" data-name="Path 107568" d="M34.907,52.6a.97.97,0,0,0-.97-.97H30.99a.97.97,0,1,0,0,1.939h2.948A.97.97,0,0,0,34.907,52.6Z" transform="translate(-0.852 -1.478)" fill="#e1a225"/>
    <path id="Path_107569" data-name="Path 107569" d="M42.19,52.6a.96.96,0,0,0,.97.97h2.948a.97.97,0,1,0,0-1.939H43.16A.97.97,0,0,0,42.19,52.6Z" transform="translate(-1.221 -1.478)" fill="#e1a225"/>
    <path id="Path_107570" data-name="Path 107570" d="M60.295,53.487a.97.97,0,0,0-.485,1.28,1.912,1.912,0,0,1-.155,1.871.979.979,0,0,0,.271,1.348.911.911,0,0,0,.533.165,1,1,0,0,0,.814-.427,3.878,3.878,0,0,0,.65-2.162,3.949,3.949,0,0,0-.339-1.6.97.97,0,0,0-1.29-.475Z" transform="translate(-1.747 -1.532)" fill="#e1a225"/>
    <path id="Path_107571" data-name="Path 107571" d="M42.735,14.083a11.083,11.083,0,1,0-22.165,0c0,6.128,11.083,20.1,11.083,20.1S42.735,20.211,42.735,14.083Zm-17.337,0a6.254,6.254,0,1,1,6.254,6.264A6.254,6.254,0,0,1,25.4,14.083Z" transform="translate(-0.564)" fill="#e1a225"/>
  </g>
</svg>
