<svg xmlns="http://www.w3.org/2000/svg" width="45.144" height="58" viewBox="0 0 45.144 58">
  <g id="i4" transform="translate(-9.43 -3)">
    <path id="Path_107572" data-name="Path 107572" d="M52.568,51.391l-9.715,3.238H38.611l-4.243-1.414,6.051-1.65a1.919,1.919,0,0,0-.777-3.75l-8.1,1.157-3.389,1.334A10.015,10.015,0,0,1,24.49,51H19.43v8h7.744a10.018,10.018,0,0,1,2.389.289l6.926,1.7,7.071-1.414,10.2-5.4a1.521,1.521,0,0,0-1.193-2.788Z" fill="#e1a225"/>
    <path id="Path_107573" data-name="Path 107573" d="M9.43,61h6.956a1,1,0,0,0,1-1V50a1,1,0,0,0-1-1H9.43Zm3-5.044h2v2h-2Z" fill="#e1a225"/>
    <path id="Path_107574" data-name="Path 107574" d="M30,43.88a16.727,16.727,0,0,0,4,0A16.013,16.013,0,0,0,48,28c0-8.84-11-15-16-25C27,13,16,19.16,16,28A16.013,16.013,0,0,0,30,43.88ZM27.283,28.172a4.8,4.8,0,1,1,9.434,0A4,4,0,0,1,36,36.1H32.665l.535,5.828a10.036,10.036,0,0,1-2.4,0l.535-5.828H28a4,4,0,0,1-.717-7.928Z" fill="#e1a225"/>
  </g>
</svg>
