<svg xmlns="http://www.w3.org/2000/svg" width="45.236" height="51.883" viewBox="0 0 45.236 51.883">
  <g id="i5" transform="translate(-5.075 -2)">
    <g id="Group_24032" data-name="Group 24032" transform="translate(5.075 2)">
      <path id="Path_107575" data-name="Path 107575" d="M49.23,29.044H43.055L30.142,20.859a4.152,4.152,0,0,0-1.365-7.377V9.9h2.963a1.079,1.079,0,0,0,.908-1.665L30.455,2.681A1.081,1.081,0,0,0,29.449,2H25.936a1.081,1.081,0,0,0-1.005.681L22.672,8.42a1.043,1.043,0,0,0,.108,1.005,1.065,1.065,0,0,0,.9.476h2.938v4.519A1.08,1.08,0,0,0,27.7,15.5a2,2,0,1,1-2,2,1.081,1.081,0,0,0-2.162,0,4.152,4.152,0,0,0,1.719,3.355L12.337,29.044H6.156a1.084,1.084,0,0,0-1.081,1.081V52.8a1.084,1.084,0,0,0,1.081,1.081H49.23A1.077,1.077,0,0,0,50.311,52.8V30.125A1.077,1.077,0,0,0,49.23,29.044ZM27.7,21.868l11.321,7.177H16.375ZM12.564,47.95a1.081,1.081,0,1,1-2.162,0V34.979a1.081,1.081,0,1,1,2.162,0Zm6.485-2.162a1.081,1.081,0,1,1-2.162,0V37.141a1.081,1.081,0,1,1,2.162,0Zm6.485,2.162a1.081,1.081,0,1,1-2.162,0V34.979a1.081,1.081,0,1,1,2.162,0Zm6.485-2.162a1.081,1.081,0,0,1-2.162,0V37.141a1.081,1.081,0,0,1,2.162,0Zm6.485,2.162a1.081,1.081,0,0,1-2.162,0V34.979a1.081,1.081,0,0,1,2.162,0Zm6.485-2.162a1.081,1.081,0,0,1-2.162,0V37.141a1.081,1.081,0,0,1,2.162,0Z" transform="translate(-5.075 -2)" fill="#e1a225"/>
    </g>
  </g>
</svg>
