<svg xmlns="http://www.w3.org/2000/svg" width="47.155" height="32.157" viewBox="0 0 47.155 32.157">
  <g id="i6" transform="translate(-14 -25.5)">
    <g id="Group" transform="translate(14 25.5)">
      <path id="Path" d="M51.659,28.185a4.913,4.913,0,0,1-7.2,0A10.246,10.246,0,0,0,37.578,25.5,10.058,10.058,0,0,0,30.7,28.185c-1.375,1.113-1.9,1.572-3.6,1.572a4.846,4.846,0,0,1-3.6-1.572A10.246,10.246,0,0,0,16.62,25.5H14v5.239h2.62a4.846,4.846,0,0,1,3.6,1.572A10.246,10.246,0,0,0,27.1,35a10.058,10.058,0,0,0,6.877-2.685c1.375-1.113,1.9-1.572,3.6-1.572a4.846,4.846,0,0,1,3.6,1.572A10.246,10.246,0,0,0,48.057,35a10.058,10.058,0,0,0,6.877-2.685c1.375-1.113,1.9-1.572,3.6-1.572h2.62V25.5h-2.62A9.763,9.763,0,0,0,51.659,28.185Z" transform="translate(-14 -25.5)" fill="#e1a225"/>
      <path id="Path-2" data-name="Path" d="M51.659,45.485a4.913,4.913,0,0,1-7.2,0A10.246,10.246,0,0,0,37.578,42.8,10.058,10.058,0,0,0,30.7,45.485c-1.375,1.113-1.9,1.572-3.6,1.572a4.846,4.846,0,0,1-3.6-1.572A10.246,10.246,0,0,0,16.62,42.8H14v5.239h2.62a4.846,4.846,0,0,1,3.6,1.572A10.246,10.246,0,0,0,27.1,52.3a10.058,10.058,0,0,0,6.877-2.685c1.375-1.113,1.9-1.572,3.6-1.572a4.846,4.846,0,0,1,3.6,1.572A10.246,10.246,0,0,0,48.057,52.3a10.058,10.058,0,0,0,6.877-2.685c1.375-1.113,1.9-1.572,3.6-1.572h2.62V42.8h-2.62A9.763,9.763,0,0,0,51.659,45.485Z" transform="translate(-14 -31.47)" fill="#e1a225"/>
      <path id="Path-3" data-name="Path" d="M51.659,62.785a4.913,4.913,0,0,1-7.2,0A10.246,10.246,0,0,0,37.578,60.1,10.058,10.058,0,0,0,30.7,62.785c-1.375,1.113-1.9,1.572-3.6,1.572a4.846,4.846,0,0,1-3.6-1.572A10.246,10.246,0,0,0,16.62,60.1H14v5.239h2.62a4.846,4.846,0,0,1,3.6,1.572A10.246,10.246,0,0,0,27.1,69.6a10.058,10.058,0,0,0,6.877-2.685c1.375-1.113,1.9-1.572,3.6-1.572a4.846,4.846,0,0,1,3.6,1.572A10.246,10.246,0,0,0,48.057,69.6a10.058,10.058,0,0,0,6.877-2.685c1.375-1.113,1.9-1.572,3.6-1.572h2.62V60.1h-2.62A10.058,10.058,0,0,0,51.659,62.785Z" transform="translate(-14 -37.439)" fill="#e1a225"/>
    </g>
  </g>
</svg>
