<svg xmlns="http://www.w3.org/2000/svg" width="33.912" height="46.469" viewBox="0 0 33.912 46.469">
  <g id="icon1" transform="translate(-10482.976 -1807.976)">
    <path id="Path_107522" data-name="Path 107522" d="M7.419,0A1.135,1.135,0,0,0,7,.085a1.042,1.042,0,0,0-.338.236,1.1,1.1,0,0,0-.236.355,1.045,1.045,0,0,0-.084.4V41.854a1.041,1.041,0,0,0,.084.4,1.1,1.1,0,0,0,.236.355A1.042,1.042,0,0,0,7,42.85a1.116,1.116,0,0,0,.422.085h7.8a1.032,1.032,0,0,0,.4-.085,1.109,1.109,0,0,0,.354-.236,1.089,1.089,0,0,0,.237-.355,1.041,1.041,0,0,0,.084-.4v-3.68a3.639,3.639,0,0,1,7.277,0v3.68a1.027,1.027,0,0,0,.067.4,1.122,1.122,0,0,0,.237.355,1.106,1.106,0,0,0,.776.321h7.8a1.033,1.033,0,0,0,.406-.085,1.088,1.088,0,0,0,.591-.591,1.041,1.041,0,0,0,.084-.4V1.081a1.045,1.045,0,0,0-.084-.4,1.122,1.122,0,0,0-.237-.355,1.109,1.109,0,0,0-.354-.236A1.051,1.051,0,0,0,32.457,0Zm5.42,4.778h2.6a1.028,1.028,0,0,1,.4.085A1.113,1.113,0,0,1,16.2,5.1a1.047,1.047,0,0,1,.236.338,1.126,1.126,0,0,1,.084.422V8.442a1.134,1.134,0,0,1-.084.422A1.032,1.032,0,0,1,16.2,9.2a1.116,1.116,0,0,1-.355.237,1.049,1.049,0,0,1-.4.084h-2.6a1.045,1.045,0,0,1-.4-.084,1.105,1.105,0,0,1-.355-.237,1.017,1.017,0,0,1-.236-.337,1.135,1.135,0,0,1-.085-.422V5.859a1.127,1.127,0,0,1,.085-.422,1.032,1.032,0,0,1,.236-.338,1.1,1.1,0,0,1,.355-.236,1.028,1.028,0,0,1,.4-.085m11.582,0h2.6a1.032,1.032,0,0,1,.405.085,1.113,1.113,0,0,1,.355.236,1.032,1.032,0,0,1,.236.338,1.126,1.126,0,0,1,.084.422V8.442a1.134,1.134,0,0,1-.084.422,1.017,1.017,0,0,1-.236.337,1.116,1.116,0,0,1-.355.237,1.049,1.049,0,0,1-.405.084h-2.6a1.049,1.049,0,0,1-.4-.084,1.105,1.105,0,0,1-.355-.237,1.017,1.017,0,0,1-.236-.337,1.134,1.134,0,0,1-.084-.422V5.859a1.126,1.126,0,0,1,.084-.422,1.032,1.032,0,0,1,.236-.338,1.1,1.1,0,0,1,.355-.236,1.032,1.032,0,0,1,.4-.085M12.839,15.6h2.6a1.028,1.028,0,0,1,.4.085,1.113,1.113,0,0,1,.355.236,1.126,1.126,0,0,1,.236.354,1.05,1.05,0,0,1,.084.406v2.6a1.049,1.049,0,0,1-.084.405,1.088,1.088,0,0,1-.591.591,1.049,1.049,0,0,1-.4.084h-2.6a1.045,1.045,0,0,1-.4-.084,1.122,1.122,0,0,1-.355-.237,1.109,1.109,0,0,1-.236-.354,1.05,1.05,0,0,1-.085-.405v-2.6a1.051,1.051,0,0,1,.085-.406,1.109,1.109,0,0,1,.236-.354,1.086,1.086,0,0,1,.355-.236,1.028,1.028,0,0,1,.4-.085m11.582,0h2.6a1.032,1.032,0,0,1,.405.085,1.082,1.082,0,0,1,.591.59,1.05,1.05,0,0,1,.084.406v2.6a1.049,1.049,0,0,1-.084.405,1.088,1.088,0,0,1-.591.591,1.049,1.049,0,0,1-.405.084h-2.6a1.049,1.049,0,0,1-.4-.084,1.122,1.122,0,0,1-.355-.237,1.109,1.109,0,0,1-.236-.354,1.049,1.049,0,0,1-.084-.405v-2.6a1.05,1.05,0,0,1,.084-.406,1.109,1.109,0,0,1,.236-.354,1.086,1.086,0,0,1,.355-.236,1.032,1.032,0,0,1,.4-.085M12.839,26.424h2.6a1.045,1.045,0,0,1,.4.084,1.133,1.133,0,0,1,.355.237,1.054,1.054,0,0,1,.236.337,1.134,1.134,0,0,1,.084.422v2.583a1.135,1.135,0,0,1-.084.423,1.054,1.054,0,0,1-.236.337,1.116,1.116,0,0,1-.355.237,1.049,1.049,0,0,1-.4.084h-2.6a1.045,1.045,0,0,1-.4-.084,1.122,1.122,0,0,1-.355-.237,1.038,1.038,0,0,1-.236-.337,1.136,1.136,0,0,1-.085-.423V27.5a1.135,1.135,0,0,1,.085-.422,1.038,1.038,0,0,1,.236-.337,1.105,1.105,0,0,1,.355-.237,1.045,1.045,0,0,1,.4-.084m11.582,0h2.6a1.049,1.049,0,0,1,.405.084,1.133,1.133,0,0,1,.355.237,1.038,1.038,0,0,1,.236.337,1.134,1.134,0,0,1,.084.422v2.583a1.135,1.135,0,0,1-.084.423,1.038,1.038,0,0,1-.236.337,1.116,1.116,0,0,1-.355.237,1.049,1.049,0,0,1-.405.084h-2.6a1.049,1.049,0,0,1-.4-.084,1.122,1.122,0,0,1-.355-.237,1.038,1.038,0,0,1-.236-.337,1.135,1.135,0,0,1-.084-.423V27.5a1.134,1.134,0,0,1,.084-.422,1.038,1.038,0,0,1,.236-.337,1.105,1.105,0,0,1,.355-.237,1.049,1.049,0,0,1,.4-.084" transform="translate(10480 1807.976)" fill="#fff" fill-rule="evenodd"/>
    <path id="Path_107523" data-name="Path 107523" d="M4.072,44.308a1.1,1.1,0,0,0-.418.078,1.08,1.08,0,0,0-.594,1.42,1.069,1.069,0,0,0,.238.352,1.082,1.082,0,0,0,.356.233,1.067,1.067,0,0,0,.418.078h31.72a1.124,1.124,0,0,0,.418-.078,1.08,1.08,0,0,0,0-2,1.067,1.067,0,0,0-.418-.078Z" transform="translate(10480 1807.976)" fill="#fff" fill-rule="evenodd"/>
  </g>
</svg>
