<svg xmlns="http://www.w3.org/2000/svg" width="46" height="47.974" viewBox="0 0 46 47.974">
  <g id="icon3" transform="translate(-1.006 -0.001)">
    <g id="Group_24024" data-name="Group 24024" transform="translate(-1220 -240)">
      <path id="Path_107545" data-name="Path 107545" d="M1230.544,264.647l-9.4,15.86a1,1,0,0,0,1.154,1.464l7.6-2.334,1.722,7.56a1,1,0,0,0,1.834.288l9.208-15.54q.663.057,1.338.056t1.338-.056l9.208,15.54a1,1,0,0,0,1.834-.288l1.722-7.56,7.6,2.334a1,1,0,0,0,1.154-1.464l-9.4-15.86a16,16,0,1,0-26.924,0ZM1244.006,242a14,14,0,1,1-14,14A14.008,14.008,0,0,1,1244.006,242Zm0,2a12,12,0,1,0,12,12A12.007,12.007,0,0,0,1244.006,244Zm0,2a10,10,0,1,1-10,10A10,10,0,0,1,1244.006,246Zm4.35,6.24-6.19,5.306-2.36-3.146a1,1,0,0,0-1.6,1.2l3,4a1,1,0,0,0,1.45.16l7-6a1,1,0,0,0-1.3-1.52Z" fill="#fff" fill-rule="evenodd"/>
    </g>
  </g>
</svg>
