<svg xmlns="http://www.w3.org/2000/svg" width="39.864" height="43.831" viewBox="0 0 39.864 43.831">
  <g id="icon2" transform="translate(-10480 -1897.838)">
    <path id="Path_107524" data-name="Path 107524" d="M10.981,98.9A2.118,2.118,0,0,0,13.1,96.782v-4.8a2.123,2.123,0,0,0-4.245,0v4.845A2.108,2.108,0,0,0,10.981,98.9Z" transform="translate(10480 1807.976)" fill="#fff"/>
    <path id="Path_107525" data-name="Path 107525" d="M28.836,98.9a2.118,2.118,0,0,0,2.123-2.123v-4.8a2.123,2.123,0,0,0-4.245,0v4.845A2.079,2.079,0,0,0,28.836,98.9Z" transform="translate(10480 1807.976)" fill="#fff"/>
    <path id="Path_107526" data-name="Path 107526" d="M36.357,94.706H32.666v2.076a3.83,3.83,0,1,1-7.659,0V94.706H14.81v2.076a3.83,3.83,0,1,1-7.659,0V94.706H3.461A3.456,3.456,0,0,0,0,98.167v32.066a3.486,3.486,0,0,0,3.461,3.46H36.4a3.456,3.456,0,0,0,3.461-3.46V98.167A3.526,3.526,0,0,0,36.357,94.706Zm0,34.65a.876.876,0,0,1-.877.877H4.291a.907.907,0,0,1-.877-.877V105a.908.908,0,0,1,.877-.877H35.48a.877.877,0,0,1,.877.877Z" transform="translate(10480 1807.976)" fill="#fff"/>
    <path id="Path_107527" data-name="Path 107527" d="M21.085,107.579h-2.4a.68.68,0,0,0-.692.692v2.076a.68.68,0,0,0,.692.692h2.4a.68.68,0,0,0,.692-.692v-2.076A.71.71,0,0,0,21.085,107.579Z" transform="translate(10480 1807.976)" fill="#fff"/>
    <path id="Path_107528" data-name="Path 107528" d="M15.548,107.579h-2.4a.68.68,0,0,0-.692.692v2.076a.68.68,0,0,0,.692.692h2.4a.68.68,0,0,0,.692-.692v-2.076A.71.71,0,0,0,15.548,107.579Z" transform="translate(10480 1807.976)" fill="#fff"/>
    <path id="Path_107529" data-name="Path 107529" d="M24.268,111.085h2.353a.68.68,0,0,0,.692-.692v-2.076a.68.68,0,0,0-.692-.692H24.268a.68.68,0,0,0-.692.692v2.076a.653.653,0,0,0,.692.692" transform="translate(10480 1807.976)" fill="#fff"/>
    <path id="Path_107530" data-name="Path 107530" d="M32.158,107.579h-2.4a.68.68,0,0,0-.692.692v2.076a.68.68,0,0,0,.692.692h2.4a.68.68,0,0,0,.692-.692v-2.076A.653.653,0,0,0,32.158,107.579Z" transform="translate(10480 1807.976)" fill="#fff"/>
    <path id="Path_107531" data-name="Path 107531" d="M9.966,112.792H7.613a.68.68,0,0,0-.692.692v2.076a.68.68,0,0,0,.692.692H9.966a.68.68,0,0,0,.692-.692v-2.076a.653.653,0,0,0-.692-.692" transform="translate(10480 1807.976)" fill="#fff"/>
    <path id="Path_107532" data-name="Path 107532" d="M15.548,112.792H13.195a.68.68,0,0,0-.692.692v2.076a.68.68,0,0,0,.692.692h2.353a.68.68,0,0,0,.692-.692v-2.076a.71.71,0,0,0-.692-.692" transform="translate(10480 1807.976)" fill="#fff"/>
    <path id="Path_107533" data-name="Path 107533" d="M21.085,112.792h-2.4a.68.68,0,0,0-.692.692v2.076a.68.68,0,0,0,.692.692h2.4a.68.68,0,0,0,.692-.692v-2.076a.71.71,0,0,0-.692-.692" transform="translate(10480 1807.976)" fill="#fff"/>
    <path id="Path_107534" data-name="Path 107534" d="M24.268,116.3h2.353a.68.68,0,0,0,.692-.692v-2.076a.68.68,0,0,0-.692-.692H24.268a.68.68,0,0,0-.692.692v2.076a.653.653,0,0,0,.692.692" transform="translate(10480 1807.976)" fill="#fff"/>
    <path id="Path_107535" data-name="Path 107535" d="M32.158,112.792h-2.4a.68.68,0,0,0-.692.692v2.076a.68.68,0,0,0,.692.692h2.4a.68.68,0,0,0,.692-.692v-2.076a.653.653,0,0,0-.692-.692" transform="translate(10480 1807.976)" fill="#fff"/>
    <path id="Path_107536" data-name="Path 107536" d="M9.966,118.052H7.613a.68.68,0,0,0-.692.692v2.076a.68.68,0,0,0,.692.692H9.966a.68.68,0,0,0,.692-.692v-2.076a.653.653,0,0,0-.692-.692" transform="translate(10480 1807.976)" fill="#fff"/>
    <path id="Path_107537" data-name="Path 107537" d="M15.548,118.052H13.195a.68.68,0,0,0-.692.692v2.076a.68.68,0,0,0,.692.692h2.353a.68.68,0,0,0,.692-.692v-2.076a.71.71,0,0,0-.692-.692" transform="translate(10480 1807.976)" fill="#fff"/>
    <path id="Path_107538" data-name="Path 107538" d="M21.085,118.052h-2.4a.68.68,0,0,0-.692.692v2.076a.68.68,0,0,0,.692.692h2.4a.68.68,0,0,0,.692-.692v-2.076a.71.71,0,0,0-.692-.692" transform="translate(10480 1807.976)" fill="#fff"/>
    <path id="Path_107539" data-name="Path 107539" d="M24.268,121.512h2.353a.68.68,0,0,0,.692-.692v-2.076a.68.68,0,0,0-.692-.692H24.268a.68.68,0,0,0-.692.692v2.076a.653.653,0,0,0,.692.692" transform="translate(10480 1807.976)" fill="#fff"/>
    <path id="Path_107540" data-name="Path 107540" d="M32.158,118.052h-2.4a.68.68,0,0,0-.692.692v2.076a.68.68,0,0,0,.692.692h2.4a.68.68,0,0,0,.692-.692v-2.076a.653.653,0,0,0-.692-.692" transform="translate(10480 1807.976)" fill="#fff"/>
    <path id="Path_107541" data-name="Path 107541" d="M9.966,123.266H7.613a.68.68,0,0,0-.692.692v2.076a.68.68,0,0,0,.692.692H9.966a.68.68,0,0,0,.692-.692v-2.076a.653.653,0,0,0-.692-.692" transform="translate(10480 1807.976)" fill="#fff"/>
    <path id="Path_107542" data-name="Path 107542" d="M15.548,123.266H13.195a.68.68,0,0,0-.692.692v2.076a.68.68,0,0,0,.692.692h2.353a.68.68,0,0,0,.692-.692v-2.076a.71.71,0,0,0-.692-.692" transform="translate(10480 1807.976)" fill="#fff"/>
    <path id="Path_107543" data-name="Path 107543" d="M21.085,123.266h-2.4a.68.68,0,0,0-.692.692v2.076a.68.68,0,0,0,.692.692h2.4a.68.68,0,0,0,.692-.692v-2.076a.71.71,0,0,0-.692-.692" transform="translate(10480 1807.976)" fill="#fff"/>
    <path id="Path_107544" data-name="Path 107544" d="M26.622,123.266H24.268a.68.68,0,0,0-.692.692v2.076a.68.68,0,0,0,.692.692h2.354a.679.679,0,0,0,.691-.692v-2.076a.653.653,0,0,0-.691-.692" transform="translate(10480 1807.976)" fill="#fff"/>
  </g>
</svg>
