<svg xmlns="http://www.w3.org/2000/svg" xmlns:xlink="http://www.w3.org/1999/xlink" width="17.432" height="17.428" viewBox="0 0 17.432 17.428">
  <defs>
    <radialGradient id="radial-gradient" cx="0.968" cy="0.469" r="0.639" gradientTransform="matrix(-0.962, 0.271, 0.196, 0.693, 3.019, -0.478)" gradientUnits="objectBoundingBox">
      <stop offset="0" stop-color="#ff005f"/>
      <stop offset="1" stop-color="#fc01d8"/>
    </radialGradient>
    <radialGradient id="radial-gradient-2" cx="0.266" cy="1.077" r="0.798" gradientTransform="matrix(0, -1, -1.061, 0, 1.384, 1.382)" gradientUnits="objectBoundingBox">
      <stop offset="0" stop-color="#fc0"/>
      <stop offset="0.124" stop-color="#fc0"/>
      <stop offset="0.567" stop-color="#fe4a05"/>
      <stop offset="0.694" stop-color="#ff0f3f"/>
      <stop offset="1" stop-color="#fe0657" stop-opacity="0"/>
    </radialGradient>
    <radialGradient id="radial-gradient-3" cx="0.525" cy="0.986" r="0.33" gradientTransform="matrix(0.502, -0.865, -1.126, -0.654, 0.765, 1.291)" gradientUnits="objectBoundingBox">
      <stop offset="0" stop-color="#fc0"/>
      <stop offset="1" stop-color="#fc0" stop-opacity="0"/>
    </radialGradient>
    <radialGradient id="radial-gradient-4" cx="0.136" cy="0.041" r="0.632" gradientTransform="matrix(-0.962, 0.271, 0.092, 0.328, 2.818, -0.039)" gradientUnits="objectBoundingBox">
      <stop offset="0" stop-color="#780cff"/>
      <stop offset="1" stop-color="#820bff" stop-opacity="0"/>
    </radialGradient>
  </defs>
  <g id="instagram" transform="translate(0 0)">
    <path id="path2517" d="M246.573,687.9c-3.638,0-4.7,0-4.909.021a4.28,4.28,0,0,0-1.717.433,3.518,3.518,0,0,0-1,.733,3.734,3.734,0,0,0-1.01,2.119,15.636,15.636,0,0,0-.079,2.572c0,.694,0,1.606,0,2.831,0,3.636.005,4.7.021,4.907a4.4,4.4,0,0,0,.415,1.683,3.673,3.673,0,0,0,2.38,1.945,6.128,6.128,0,0,0,1.266.167c.215.01,2.416.015,4.617.015s4.4,0,4.612-.013a6.029,6.029,0,0,0,1.312-.172,3.647,3.647,0,0,0,2.38-1.947,4.313,4.313,0,0,0,.41-1.653c.013-.151.018-2.544.018-4.935s-.005-4.781-.018-4.932a4.209,4.209,0,0,0-.42-1.668,3.434,3.434,0,0,0-.746-1.022,3.755,3.755,0,0,0-2.121-1.007,15.615,15.615,0,0,0-2.572-.079h-2.836Z" transform="translate(-237.856 -687.9)" fill="url(#radial-gradient)"/>
    <path id="path24" d="M246.573,687.9c-3.638,0-4.7,0-4.909.021a4.28,4.28,0,0,0-1.717.433,3.518,3.518,0,0,0-1,.733,3.734,3.734,0,0,0-1.01,2.119,15.636,15.636,0,0,0-.079,2.572c0,.694,0,1.606,0,2.831,0,3.636.005,4.7.021,4.907a4.4,4.4,0,0,0,.415,1.683,3.673,3.673,0,0,0,2.38,1.945,6.128,6.128,0,0,0,1.266.167c.215.01,2.416.015,4.617.015s4.4,0,4.612-.013a6.029,6.029,0,0,0,1.312-.172,3.647,3.647,0,0,0,2.38-1.947,4.313,4.313,0,0,0,.41-1.653c.013-.151.018-2.544.018-4.935s-.005-4.781-.018-4.932a4.209,4.209,0,0,0-.42-1.668,3.434,3.434,0,0,0-.746-1.022,3.755,3.755,0,0,0-2.121-1.007,15.615,15.615,0,0,0-2.572-.079h-2.836Z" transform="translate(-237.856 -687.9)" fill="url(#radial-gradient-2)"/>
    <path id="path2471" d="M246.573,687.9c-3.638,0-4.7,0-4.909.021a4.28,4.28,0,0,0-1.717.433,3.518,3.518,0,0,0-1,.733,3.734,3.734,0,0,0-1.01,2.119,15.636,15.636,0,0,0-.079,2.572c0,.694,0,1.606,0,2.831,0,3.636.005,4.7.021,4.907a4.4,4.4,0,0,0,.415,1.683,3.673,3.673,0,0,0,2.38,1.945,6.128,6.128,0,0,0,1.266.167c.215.01,2.416.015,4.617.015s4.4,0,4.612-.013a6.029,6.029,0,0,0,1.312-.172,3.647,3.647,0,0,0,2.38-1.947,4.313,4.313,0,0,0,.41-1.653c.013-.151.018-2.544.018-4.935s-.005-4.781-.018-4.932a4.209,4.209,0,0,0-.42-1.668,3.434,3.434,0,0,0-.746-1.022,3.755,3.755,0,0,0-2.121-1.007,15.615,15.615,0,0,0-2.572-.079h-2.836Z" transform="translate(-237.856 -687.9)" fill="url(#radial-gradient-3)"/>
    <path id="path2501" d="M246.573,687.9c-3.638,0-4.7,0-4.909.021a4.28,4.28,0,0,0-1.717.433,3.518,3.518,0,0,0-1,.733,3.734,3.734,0,0,0-1.01,2.119,15.636,15.636,0,0,0-.079,2.572c0,.694,0,1.606,0,2.831,0,3.636.005,4.7.021,4.907a4.4,4.4,0,0,0,.415,1.683,3.673,3.673,0,0,0,2.38,1.945,6.128,6.128,0,0,0,1.266.167c.215.01,2.416.015,4.617.015s4.4,0,4.612-.013a6.029,6.029,0,0,0,1.312-.172,3.647,3.647,0,0,0,2.38-1.947,4.313,4.313,0,0,0,.41-1.653c.013-.151.018-2.544.018-4.935s-.005-4.781-.018-4.932a4.209,4.209,0,0,0-.42-1.668,3.434,3.434,0,0,0-.746-1.022,3.755,3.755,0,0,0-2.121-1.007,15.615,15.615,0,0,0-2.572-.079h-2.836Z" transform="translate(-237.856 -687.9)" fill="url(#radial-gradient-4)"/>
    <path id="path28" d="M331.68,775.4c-1.76,0-1.981.008-2.672.038a4.782,4.782,0,0,0-1.573.3,3.219,3.219,0,0,0-1.148.746,3.15,3.15,0,0,0-.748,1.148,4.7,4.7,0,0,0-.3,1.571c-.031.692-.038.912-.038,2.67s.008,1.978.038,2.67a4.751,4.751,0,0,0,.3,1.571,3.321,3.321,0,0,0,1.9,1.9,4.78,4.78,0,0,0,1.573.3c.692.031.912.038,2.672.038s1.981-.008,2.672-.038a4.78,4.78,0,0,0,1.573-.3,3.194,3.194,0,0,0,1.148-.748,3.151,3.151,0,0,0,.748-1.148,4.765,4.765,0,0,0,.3-1.571c.031-.692.038-.912.038-2.67s-.008-1.981-.038-2.67a4.817,4.817,0,0,0-.3-1.571,3.193,3.193,0,0,0-.748-1.148,3.13,3.13,0,0,0-1.148-.746,4.782,4.782,0,0,0-1.573-.3c-.694-.031-.912-.038-2.672-.038Zm-.582,1.166h.582c1.729,0,1.934.005,2.619.038a3.561,3.561,0,0,1,1.2.223,2.04,2.04,0,0,1,.746.484,1.988,1.988,0,0,1,.484.746,3.542,3.542,0,0,1,.223,1.2c.031.682.038.887.038,2.616s-.008,1.932-.038,2.616a3.54,3.54,0,0,1-.223,1.2,2.008,2.008,0,0,1-.484.743,2.04,2.04,0,0,1-.746.484,3.545,3.545,0,0,1-1.2.223c-.684.031-.889.038-2.619.038s-1.934-.008-2.619-.038a3.627,3.627,0,0,1-1.2-.223,2.04,2.04,0,0,1-.746-.484,1.978,1.978,0,0,1-.484-.743,3.541,3.541,0,0,1-.223-1.2c-.031-.682-.038-.886-.038-2.616s.005-1.932.038-2.616a3.542,3.542,0,0,1,.223-1.2,2.139,2.139,0,0,1,1.23-1.23,3.546,3.546,0,0,1,1.2-.223c.6-.031.83-.038,2.037-.038Zm4.041,1.076a.776.776,0,1,0,.776.776.776.776,0,0,0-.776-.776Zm-3.459.907a3.326,3.326,0,1,0,3.328,3.326,3.327,3.327,0,0,0-3.328-3.326Zm0,1.168a2.157,2.157,0,1,1-2.16,2.157A2.158,2.158,0,0,1,331.68,779.717Z" transform="translate(-322.962 -773.158)" fill="#fff"/>
  </g>
</svg>
