<svg id="logo" xmlns="http://www.w3.org/2000/svg" xmlns:xlink="http://www.w3.org/1999/xlink" width="232.187" height="70.237" viewBox="0 0 232.187 70.237">
  <defs>
    <clipPath id="clip-path">
      <rect id="Rectangle_1753" data-name="Rectangle 1753" width="232.187" height="70.237" fill="none"/>
    </clipPath>
  </defs>
  <g id="Group_24081" data-name="Group 24081" clip-path="url(#clip-path)">
    <path id="Path_107599" data-name="Path 107599" d="M0,5.708c0,19.044.214,38.1,0,57.142-.045,3.94.651,7.265,5.265,7.265H27.678a8.426,8.426,0,0,0,1.98-.224,4.47,4.47,0,0,0,3.163-3.817,22.724,22.724,0,0,0-.881-5l-1.433-6.4c-.091-.436-.163-.584-.25-.975L25.219,31.186C23.508,22.9,21.193,13.979,19.483,5.7c-.079-.384-.154-.683-.232-.992-.1-.394-.12-.724-.222-1.125A4.537,4.537,0,0,0,16.783.561C14.7-.54,13.137.24,10.411.687c-1.4.229-7.218,1.06-8.431,1.856A4.394,4.394,0,0,0,0,5.708" transform="translate(0 0)" fill="#e1a225" fill-rule="evenodd"/>
    <path id="Path_107600" data-name="Path 107600" d="M67.258,79.8V31.556a3.668,3.668,0,0,0-3.673-3.306H52.931a3.856,3.856,0,0,0-3.378,1.642c-.907,1.389-.663,2.308-.27,3.965l9.291,41.4c.278,1.339.6,2.7.921,4.1.4,1.746.513,2.44,1.793,3.35,2.107,1.5,5.971.259,5.971-2.909" transform="translate(-22.926 -13.236)" fill="#e1a225" fill-rule="evenodd"/>
    <path id="Path_107601" data-name="Path 107601" d="M122.358,113.038h6.368v-11.02a3.314,3.314,0,0,1,.219.271l6.169,10.117c.5.863.121.633,3.04.633.523,0,3.209-4.894,3.481-5.336.581-.945,1.1-1.8,1.686-2.722l1.523-2.519c.22-.292.008-.015.168-.2v10.775h6.368V91.61h-6.368c-.136.508-3.62,6.053-3.988,6.666s-3.858,6.193-3.972,6.681a32.091,32.091,0,0,1-2.105-3.283l-5.659-9.28c-.214-.334-.322-.784-.686-.784h-6.246Z" transform="translate(-57.33 -42.923)" fill="#0a2e4e" fill-rule="evenodd"/>
    <path id="Path_107602" data-name="Path 107602" d="M273.091,101.161h-9.552c-.282,0-.367-.085-.367-.367V97.365h10.164a1.221,1.221,0,0,1,.979,1.347c0,.723.206,2.449-1.224,2.449m-16.165,11.878h6.246v-5.877c0-.282.085-.367.367-.367h5.878c.435,0,3.7,4.6,4.213,5.338a3.392,3.392,0,0,1,.563.907h7.225a9.051,9.051,0,0,0-1.085-1.61l-3.569-4.88a5.378,5.378,0,0,0,2.746-1.907c1.546-2.24,1.172-4.018,1.172-7.154a5.756,5.756,0,0,0-5.511-5.877H256.926Z" transform="translate(-120.381 -42.923)" fill="#0a2e4e" fill-rule="evenodd"/>
    <path id="Path_107603" data-name="Path 107603" d="M185.185,91.977v4.9h14.7l-5.755,4.164c-.637.449-1.274.893-1.927,1.38-1.3.968-2.556,1.809-3.848,2.764l-3.419,2.459c-.185.147-.358.176-.358.5v5.02h23.39c.282,0,.367-.085.367-.368v-4.9H192.9a1.131,1.131,0,0,1,.2-.166c.1-.077.108-.078.214-.154l3.416-2.462c3.041-2.29,6.557-4.651,9.605-6.926.318-.238,1.871-1.161,1.871-1.558V91.61H185.552c-.282,0-.367.085-.367.367" transform="translate(-86.48 -42.923)" fill="#0a2e4e" fill-rule="evenodd"/>
    <path id="Path_107604" data-name="Path 107604" d="M325.908,97.61a75.5,75.5,0,0,1,3.8,6.979h-7.47l2.8-5.164a9.371,9.371,0,0,0,.878-1.815m-15.063,15.428H317.7c.657-1.241,1.3-2.431,1.959-3.673H332.4c.192.823,1.662,2.922,1.837,3.673h6.858c-.139-.6-5.4-9.845-5.977-10.8l-2.252-3.993c-.277-.459-.527-.93-.791-1.413l-2.246-4c-.166-.339-.543-1.224-.979-1.224h-5.756c-.363,0-.341.2-.5.476-.139.234-.242.407-.394.708-.248.489-.464.86-.746,1.336Z" transform="translate(-145.644 -42.923)" fill="#0a2e4e" fill-rule="evenodd"/>
    <path id="Path_107605" data-name="Path 107605" d="M122.356,36.675c0,2.826-.221,2.449,4.163,2.449.465,0,.523-.473.612-.857h13.1a1.266,1.266,0,0,1,.367.857V49.409a.7.7,0,0,1-.612.612H127.867c-1.211,0-.857-1.429-.857-3.551a1.266,1.266,0,0,1,.367-.857c3.1,0,9.875.308,12.246-.245a5.892,5.892,0,0,0,0-3.306,3.579,3.579,0,0,0-1.1-.245h-12c-2.583,0-4.163.956-4.163,3.551v5.021c0,2.486,2.136,3.428,4.408,3.428h14.083c2.835,0,4.531-1.555,4.531-4.408V39.369c0-1.535-.126-2.95-.883-3.77a4.758,4.758,0,0,0-3.648-1.128H124.316c-1.54,0-1.959.671-1.959,2.2" transform="translate(-57.328 -16.151)" fill="#0a2e4e" fill-rule="evenodd"/>
    <path id="Path_107606" data-name="Path 107606" d="M167.5,38.144c0,2.6-.4,5.023,2.039,6.532,1.708,1.057,2.377.815,4.941.815,2.1,0,10-.306,11.144.245.331.33.245,2.547.245,3.061,0,.73-.25,1.224-.979,1.224h-7.225a1.266,1.266,0,0,1-.857-.367c0-3.913.588-3.306-3.918-3.306-.376,0-.735.113-.735.489,0,2.569-.458,4.986,1.293,6.177a5.5,5.5,0,0,0,2.87.8h9.92c4.906,0,4.286-3.8,4.286-6.857,0-2.072-.527-3.1-1.748-4.008-1.551-1.152-2.184-1.135-4.743-1.135-2.012,0-10.369.172-11.634-.122a11.756,11.756,0,0,1-.123-2.816c0-.48.606-.613,1.1-.613h6.736c2.223,0,.285,2.694,1.592,2.694h3.8c.639,0,.367-1.3.367-3.061,0-2.418-2.091-3.428-4.531-3.428h-9.062c-2.5,0-4.776.894-4.776,3.673" transform="translate(-78.469 -16.151)" fill="#0a2e4e" fill-rule="evenodd"/>
    <path id="Path_107607" data-name="Path 107607" d="M348.4,37.9V50.266c0,2.443,1.869,3.551,4.163,3.551h17.512c1.515,0,1.224-.962,1.224-2.694,0-1.487-1.187-1.1-3.673-1.1h-9.8c-1.452,0-3.611.256-4.653-.244-.292-1.252-.122-8.778-.122-10.653,0-.586.414-.857.979-.857h11.511a1.979,1.979,0,0,1,.98.245,12.747,12.747,0,0,1,.122,2.939c0,.962-2.694-.4-2.694,1.347,0,3.2-.531,2.694,4.041,2.694,1.718,0,3.306-.859,3.306-2.939,0-1.707.256-5.112-.388-6.223-.816-1.407-2.356-1.858-4.142-1.858H352.935c-2.423,0-4.531,1.027-4.531,3.428" transform="translate(-163.242 -16.151)" fill="#0a2e4e" fill-rule="evenodd"/>
    <path id="Path_107608" data-name="Path 107608" d="M393.287,38.144c0,2.351-.187,14.223.122,15.551a15.94,15.94,0,0,0,4.531,0l.122-15.061c.252-.169.318-.368.613-.368h12.246c1.072,0,.735,2.338.735,3.429V52.1c-.006,2.1-.548,1.714,3.919,1.714a1.778,1.778,0,0,0,.612-.122,6.745,6.745,0,0,0,.123-.857V38.512c0-3.014-1.781-4.041-4.776-4.041H398.062a6.263,6.263,0,0,0-3.36.8,3.391,3.391,0,0,0-1.415,2.87" transform="translate(-184.245 -16.151)" fill="#0a2e4e" fill-rule="evenodd"/>
    <path id="Path_107609" data-name="Path 107609" d="M212.684,37.9V53.328a.471.471,0,0,0,.49.49c4.394,0,4.187.337,4.166-1.345l-.007-12.864c-.006-.827.057-1.342.863-1.342h11.879a1.266,1.266,0,0,1,.857.367V50.389c0,4.089-.843,3.428,4.163,3.428a.471.471,0,0,0,.49-.49V37.654a2.972,2.972,0,0,0-1.391-2.4,5.767,5.767,0,0,0-3.14-.779H217.215c-2.423,0-4.531,1.027-4.531,3.428" transform="translate(-99.651 -16.151)" fill="#0a2e4e" fill-rule="evenodd"/>
    <path id="Path_107610" data-name="Path 107610" d="M375.363,91.977v20.816c0,.283.085.368.367.368h21.921v-5.51h-15.92V91.61h-6c-.282,0-.367.085-.367.367" transform="translate(-175.873 -42.923)" fill="#0a2e4e" fill-rule="evenodd"/>
    <path id="Path_107611" data-name="Path 107611" d="M314.971,35.777a7.5,7.5,0,0,0,.122,2.2c2.015.967,6.246-.816,6.246,1.224v9.674a1.973,1.973,0,0,1-.245.979c-1.285.3-10.545.122-12.613.122-1.182,0-.857-1.894-.857-3.306,0-3.284.4-3.061-3.307-3.061-1.308,0-1.347.845-1.347,2.449,0,2.516-.385,5.241,1.066,6.648a4.945,4.945,0,0,0,3.22,1.066h14.45a4.02,4.02,0,0,0,4.286-3.918V38.47a3.536,3.536,0,0,0-1.272-3.136c-1.682-1.265-5.667-.905-8.157-.905a1.411,1.411,0,0,0-1.592,1.347" transform="translate(-141.933 -16.109)" fill="#0a2e4e" fill-rule="evenodd"/>
    <path id="Path_107612" data-name="Path 107612" d="M257.92,34.568c-.311,1.336-.122,16.108-.122,18.734a.471.471,0,0,0,.489.491c5.062,0,4.163.837,4.163-3.918q0-1.1,0-2.2c0-.873.065-1.4.123-2.081.554-.012.487-.122,1.1-.122H274.7c.68,0,.726.122,1.347.122v6.979c0,.616.11.548.122,1.1a15.94,15.94,0,0,0,4.531,0c.012-.554.122-.486.122-1.1V45.956c0-5.359-5.494-4.163-11.144-4.163h-5.633c-.745,0-1.375.2-1.552-.407l-.035-5.72c.023-1.549.058-1.22-3.923-1.22a2.024,2.024,0,0,0-.612.122" transform="translate(-120.763 -16.126)" fill="#0a2e4e" fill-rule="evenodd"/>
    <path id="Path_107613" data-name="Path 107613" d="M424.9,113.038h6.368V91.978c0-.282-.085-.368-.367-.368h-6Z" transform="translate(-199.085 -42.923)" fill="#0a2e4e" fill-rule="evenodd"/>
    <path id="Path_107614" data-name="Path 107614" d="M236.648,91.977v20.693c0,.282.085.367.367.367h6V91.61h-6c-.282,0-.367.085-.367.367" transform="translate(-110.88 -42.923)" fill="#0a2e4e" fill-rule="evenodd"/>
  </g>
</svg>
