<svg xmlns="http://www.w3.org/2000/svg" width="90.002" height="75.266" viewBox="0 0 90.002 75.266">
  <g id="serv1" transform="translate(-4.65 -11.837)">
    <path id="Path_107576" data-name="Path 107576" d="M60.749,39.675H38.55a1.94,1.94,0,0,1-1.893-2.359l1.016-4.57c.712-3.111,3.485-6.412,7.225-6.412h9.464c3.29,0,6.4,2.677,7.222,6.228l1.059,4.755a1.938,1.938,0,0,1-1.894,2.358ZM49.525,25.762A6.962,6.962,0,1,1,56.488,18.8,6.97,6.97,0,0,1,49.525,25.762Z" fill="#e1a225"/>
    <path id="Path_107577" data-name="Path 107577" d="M28.788,87.1H6.588A1.939,1.939,0,0,1,4.7,84.743l1.014-4.569c.712-3.112,3.485-6.413,7.225-6.413H22.4c3.289,0,6.394,2.677,7.222,6.227l1.058,4.757A1.938,1.938,0,0,1,28.788,87.1ZM17.564,73.188a6.962,6.962,0,1,1,6.962-6.962A6.971,6.971,0,0,1,17.564,73.188Z" fill="#e1a225"/>
    <path id="Path_107578" data-name="Path 107578" d="M60.749,87.1H38.55a1.94,1.94,0,0,1-1.893-2.359l1.016-4.57c.712-3.112,3.485-6.413,7.225-6.413h9.464c3.29,0,6.4,2.677,7.222,6.228l1.059,4.756A1.938,1.938,0,0,1,60.749,87.1ZM49.525,73.188a6.962,6.962,0,1,1,6.963-6.962A6.97,6.97,0,0,1,49.525,73.188Z" fill="#e1a225"/>
    <path id="Path_107579" data-name="Path 107579" d="M92.711,87.1h-22.2a1.94,1.94,0,0,1-1.893-2.359l1.015-4.57c.713-3.112,3.486-6.413,7.225-6.413h9.465c3.29,0,6.395,2.677,7.222,6.228l1.059,4.756A1.938,1.938,0,0,1,92.711,87.1ZM81.487,73.188a6.962,6.962,0,1,1,6.963-6.962A6.97,6.97,0,0,1,81.487,73.188Z" fill="#e1a225"/>
    <path id="Path_107580" data-name="Path 107580" d="M50,48V45a1,1,0,0,0-2,0v3H16v7.172a1,1,0,0,0,2,0V50H48v5a1,1,0,0,0,2,0V50H81v5.172a1,1,0,0,0,2,0V48Z" fill="#e1a225"/>
  </g>
</svg>
