<svg xmlns="http://www.w3.org/2000/svg" width="86.113" height="71.69" viewBox="0 0 86.113 71.69">
  <g id="serv3" transform="translate(-2.5 -10.419)">
    <g id="Group_24041" data-name="Group 24041" transform="translate(2.5 10.419)">
      <path id="Path_107584" data-name="Path 107584" d="M90.58,53.2a4.145,4.145,0,0,0-2.448-2.629,4.247,4.247,0,0,0-3.626.181L67.191,59.9A8.306,8.306,0,0,1,67.1,62.9a7.942,7.942,0,0,1-8.612,6.255L42.806,67.61a2.643,2.643,0,1,1,.544-5.258l15.683,1.541a2.772,2.772,0,0,0,2.992-2.176A2.819,2.819,0,0,0,60.3,58.545L43.984,52.108a12.846,12.846,0,0,0-9.7.272L25.4,56.46V81.843l24.658,3.173a17.485,17.485,0,0,0,13.961-4.351L89.4,57.547A4.318,4.318,0,0,0,90.58,53.2Z" transform="translate(-4.64 -14.141)" fill="#e1a225"/>
      <path id="Path_107585" data-name="Path 107585" d="M14.1,52.6H6.4a3.869,3.869,0,0,0-3.9,3.9V82.153a3.869,3.869,0,0,0,3.9,3.9h7.615a3.869,3.869,0,0,0,3.9-3.9V56.5A3.794,3.794,0,0,0,14.1,52.6Z" transform="translate(-2.5 -14.361)" fill="#e1a225"/>
      <path id="Path_107586" data-name="Path 107586" d="M28.312,17.473l2.72,1.269a1.258,1.258,0,0,0,.816,0l3.173-1.269a1.116,1.116,0,0,1,1.36.635l1.178,3.173a.817.817,0,0,0,.544.544l.635.272a1.258,1.258,0,0,0,.816,0l3.173-1.178A1.01,1.01,0,0,1,44,21.462l1.269,3.173a.817.817,0,0,0,.544.544l3.082,1.36a1.65,1.65,0,0,1,1,1.178c0,.181.091.363.091.544a11.749,11.749,0,0,1,8.975-3.626c.363,0,.816.091,1.178.091,2.9.181,6.164.363,8.34,2.992a2.755,2.755,0,0,1,.453.635c2.81-7.8-1.541-8.884-6.074-10.878-2.9-1.269-6.346-.453-8.975,1.178a1.82,1.82,0,0,1-1.541.091L34.2,10.674a3.257,3.257,0,0,0-2.266-.091L28.4,11.852a2.584,2.584,0,0,0-1.722,1.632A3.15,3.15,0,0,0,28.312,17.473Z" transform="translate(-4.742 -10.419)" fill="#e1a225"/>
      <path id="Path_107587" data-name="Path 107587" d="M28.8,40.982a1.029,1.029,0,0,0,.725-.272l2.629-2.176a1.1,1.1,0,0,1,1.45.091l2.176,2.629a1.119,1.119,0,0,0,.725.363l.725.091a1.029,1.029,0,0,0,.725-.272l2.629-2.176a1.1,1.1,0,0,1,1.45.091l2.176,2.629a1.119,1.119,0,0,0,.725.363l3.354.272a1.535,1.535,0,0,1,1.269.816c1.541,2.629,4.17,5.077,7.343,5.349,2.72.181,5.258.635,7.162-.272a14.071,14.071,0,0,1-6.89-7.887,3.022,3.022,0,0,1-.181-1.541,4.029,4.029,0,0,1,2.629-3.445,3.915,3.915,0,0,1,4.986,2.448,5.911,5.911,0,0,0,2.9,3.354c.091-.453.091-1,.181-1.541.907-10.878-3.9-10.244-9.247-10.7-3.173-.272-6.164,1.722-8.068,4.079a1.656,1.656,0,0,1-1.36.544L29.255,32.28a3.1,3.1,0,0,0-2.176.635l-2.992,2.448A2.806,2.806,0,0,0,23,37.447a3.1,3.1,0,0,0,2.81,3.264Z" transform="translate(-4.415 -12.172)" fill="#e1a225"/>
      <path id="Path_107588" data-name="Path 107588" d="M73.372,43.991a8.5,8.5,0,0,1-7.434-5.8,1.248,1.248,0,0,0-1.632-.816,1.378,1.378,0,0,0-.907,1.179,1.15,1.15,0,0,0,.091.544A11.153,11.153,0,1,0,76,24.5a6.664,6.664,0,0,1,0,1.9c0,.272-.091.544-.091.816a8.49,8.49,0,0,1,6.618,8.975A8.58,8.58,0,0,1,73.372,43.991Z" transform="translate(-8.192 -11.735)" fill="#e1a225"/>
    </g>
  </g>
</svg>
