<svg xmlns="http://www.w3.org/2000/svg" width="85.528" height="87.847" viewBox="0 0 85.528 87.847">
  <g id="serv2" transform="translate(-5.478 -4)">
    <path id="Path_107581" data-name="Path 107581" d="M40.259,66.167a1.568,1.568,0,0,0-1.459-.988H26.69V7.137a3.137,3.137,0,0,0-6.275,0V65.179H8.3a1.568,1.568,0,0,0-1.459.988L5.591,69.3A1.567,1.567,0,0,0,7.05,71.454H8.242c0,2.039-.753,2.039-.753,4.079s.753,2.039.753,4.079-.753,2.024-.753,4.063.753,2.055.753,4.094-.753,2.039-.753,4.079h4.706a6.805,6.805,0,0,1,.471-2.588,3.445,3.445,0,0,0,.282-1.49,3.522,3.522,0,0,0-.282-1.506,6.737,6.737,0,0,1-.471-2.588,6.642,6.642,0,0,1,.471-2.573,3.445,3.445,0,0,0,.282-1.49,3.522,3.522,0,0,0-.282-1.506,6.642,6.642,0,0,1-.471-2.573,6.805,6.805,0,0,1,.471-2.588,3.445,3.445,0,0,0,.282-1.49h3.137a6.805,6.805,0,0,1-.471,2.588,4.074,4.074,0,0,0,0,2.981,6.737,6.737,0,0,1,.471,2.588,6.642,6.642,0,0,1-.471,2.573,3.445,3.445,0,0,0-.282,1.49,3.522,3.522,0,0,0,.282,1.506,6.737,6.737,0,0,1,.471,2.588,6.642,6.642,0,0,1-.471,2.573,3.574,3.574,0,0,0-.282,1.506H18.47a6.805,6.805,0,0,1,.471-2.588,3.445,3.445,0,0,0,.282-1.49,3.522,3.522,0,0,0-.282-1.506,6.737,6.737,0,0,1-.471-2.588A6.642,6.642,0,0,1,18.94,81.1a3.445,3.445,0,0,0,.282-1.49A3.522,3.522,0,0,0,18.94,78.1a6.642,6.642,0,0,1-.471-2.573,6.805,6.805,0,0,1,.471-2.588,3.445,3.445,0,0,0,.282-1.49H22.36a6.805,6.805,0,0,1-.471,2.588,4.074,4.074,0,0,0,0,2.981,6.737,6.737,0,0,1,.471,2.588,6.642,6.642,0,0,1-.471,2.573,3.445,3.445,0,0,0-.282,1.49,3.522,3.522,0,0,0,.282,1.506,6.737,6.737,0,0,1,.471,2.588,6.642,6.642,0,0,1-.471,2.573,3.574,3.574,0,0,0-.282,1.506h3.137a6.805,6.805,0,0,1,.471-2.588,3.445,3.445,0,0,0,.282-1.49,3.522,3.522,0,0,0-.282-1.506,6.737,6.737,0,0,1-.471-2.588,6.642,6.642,0,0,1,.471-2.573,3.445,3.445,0,0,0,.282-1.49,3.522,3.522,0,0,0-.282-1.506,6.642,6.642,0,0,1-.471-2.573,6.805,6.805,0,0,1,.471-2.588,3.445,3.445,0,0,0,.282-1.49h3.137a6.805,6.805,0,0,1-.471,2.588,4.074,4.074,0,0,0,0,2.981,6.738,6.738,0,0,1,.471,2.588,6.642,6.642,0,0,1-.471,2.573,3.445,3.445,0,0,0-.282,1.49,3.522,3.522,0,0,0,.282,1.506,6.737,6.737,0,0,1,.471,2.588,6.642,6.642,0,0,1-.471,2.573,3.574,3.574,0,0,0-.282,1.506h3.137a6.805,6.805,0,0,1,.471-2.588,3.445,3.445,0,0,0,.282-1.49,3.522,3.522,0,0,0-.282-1.506,6.738,6.738,0,0,1-.471-2.588A6.642,6.642,0,0,1,31.49,81.1a3.445,3.445,0,0,0,.282-1.49A3.522,3.522,0,0,0,31.49,78.1a6.642,6.642,0,0,1-.471-2.573,6.805,6.805,0,0,1,.471-2.588,3.445,3.445,0,0,0,.282-1.49H34.91a6.806,6.806,0,0,1-.471,2.588,4.074,4.074,0,0,0,0,2.981,6.738,6.738,0,0,1,.471,2.588,6.642,6.642,0,0,1-.471,2.573,3.445,3.445,0,0,0-.282,1.49,3.522,3.522,0,0,0,.282,1.506,6.738,6.738,0,0,1,.471,2.588,6.642,6.642,0,0,1-.471,2.573,3.574,3.574,0,0,0-.282,1.506h4.706c0-2.039.753-2.039.753-4.079s-.753-2.039-.753-4.094.753-2.039.753-4.063-.753-2.039-.753-4.079.753-2.039.753-4.079h.439A1.567,1.567,0,0,0,41.514,69.3l-1.255-3.137Z" fill="#e1a225"/>
    <rect id="Rectangle_1205" data-name="Rectangle 1205" width="37.916" height="6.319" rx="1" transform="translate(53.091 53.931)" fill="#e1a225"/>
    <circle id="Ellipse_49" data-name="Ellipse 49" cx="3.16" cy="3.16" r="3.16" transform="translate(58.357 34.973)" fill="#e1a225"/>
    <circle id="Ellipse_50" data-name="Ellipse 50" cx="3.16" cy="3.16" r="3.16" transform="translate(78.368 32.867)" fill="#e1a225"/>
    <path id="Path_107582" data-name="Path 107582" d="M63.019,32.137a6.263,6.263,0,0,0-3.5,1.067,6.262,6.262,0,0,0-11.828,0,6.254,6.254,0,0,0-9.553,3.639H69.075A6.274,6.274,0,0,0,63.019,32.137Z" transform="translate(18.574 14.217)" fill="#e1a225"/>
    <path id="Path_107583" data-name="Path 107583" d="M40.741,67.413a3.134,3.134,0,0,0,3.122,2.824h19.42a3.134,3.134,0,0,0,3.122-2.824L68.946,42H38.2l2.541,25.413Z" transform="translate(18.608 21.61)" fill="#e1a225"/>
  </g>
</svg>
