<svg xmlns="http://www.w3.org/2000/svg" width="65" height="65.213" viewBox="0 0 65 65.213">
  <g id="serv4" transform="translate(-1.293 -1.193)">
    <g id="Group_24042" data-name="Group 24042" transform="translate(1.293 1.193)">
      <path id="Path_107589" data-name="Path 107589" d="M31.146,40.442A11.808,11.808,0,1,0,19.335,28.633,11.809,11.809,0,0,0,31.146,40.442ZM32.76,22.756l-.488,2.059c-3.893-.918-5.21,3.882-5.265,4.086l-2.048-.536C25.59,25.938,28.029,21.637,32.76,22.756Z" transform="translate(-0.24 -0.28)" fill="#e1a225"/>
      <path id="Path_107590" data-name="Path 107590" d="M1.293,66.406h65s-.488-13.651-11.024-20.385a28.353,28.353,0,1,0-45.876.373A27.283,27.283,0,0,0,1.293,66.406ZM32.2,7.417A22.128,22.128,0,1,1,10.068,29.545,22.127,22.127,0,0,1,32.2,7.417Z" transform="translate(-1.293 -1.193)" fill="#e1a225"/>
    </g>
  </g>
</svg>
