<svg id="Telegram" xmlns="http://www.w3.org/2000/svg" xmlns:xlink="http://www.w3.org/1999/xlink" width="18.359" height="18.359" viewBox="0 0 18.359 18.359">
  <defs>
    <linearGradient id="linear-gradient" x1="-0.829" y1="1.506" x2="-0.825" y2="1.506" gradientUnits="objectBoundingBox">
      <stop offset="0" stop-color="#37aee2"/>
      <stop offset="1" stop-color="#1e96c8"/>
    </linearGradient>
  </defs>
  <path id="Path_107661" data-name="Path 107661" d="M9.18,0A9.18,9.18,0,1,1,0,9.18,9.18,9.18,0,0,1,9.18,0Z" transform="translate(0 0)" fill="url(#linear-gradient)"/>
  <path id="Path_107660" data-name="Path 107660" d="M53.465,95.275c1.075-.591,2.28-1.09,3.4-1.589,1.934-.814,3.869-1.62,5.834-2.364.384-.131,1.067-.253,1.136.315-.038.8-.184,1.6-.292,2.387-.261,1.75-.568,3.493-.867,5.235a.822.822,0,0,1-1.3.507c-1.121-.752-2.242-1.5-3.347-2.272-.361-.368-.023-.9.3-1.159.921-.906,1.9-1.681,2.771-2.633.238-.568-.461-.092-.691.054-1.259.867-2.487,1.789-3.823,2.556a2.768,2.768,0,0,1-2.149-.154c-.606-.246-1.5-.5-.975-.883Z" transform="translate(-50.033 -85.675)" fill="#fff"/>
</svg>
