<svg xmlns="http://www.w3.org/2000/svg" width="19.244" height="20.291" viewBox="0 0 19.244 20.291">
  <g id="viber" transform="translate(-139.999 -22.002)">
    <path id="Path_107669" data-name="Path 107669" d="M157.071,23.981c-.5-.465-2.542-1.945-7.081-1.965,0,0-5.352-.323-7.962,2.071-1.452,1.453-1.963,3.578-2.017,6.214s-.124,7.574,4.637,8.914h0l0,2.043s-.03.827.514,1c.659.2,1.046-.424,1.675-1.1.345-.372.822-.919,1.181-1.336a18.349,18.349,0,0,0,6.045-.445c.657-.213,4.377-.69,4.982-5.628C159.672,28.652,158.745,25.432,157.071,23.981Z" transform="translate(0)" fill="#fff"/>
    <path id="Path_107670" data-name="Path 107670" d="M202.117,70.587c-.426-.387-2.266-1.543-6.106-1.56,0,0-4.546-.3-6.753,1.7-1.228,1.213-1.642,3.016-1.687,5.217s-.28,6.405,3.745,7.524h0s-.016,3.121-.018,3.4c0,.192.03.323.14.35a.349.349,0,0,0,.3-.122c.644-.646,2.7-3.133,2.7-3.133a16.9,16.9,0,0,0,5.2-.443c.558-.179,3.575-.438,4.086-4.563C204.255,74.7,203.533,71.8,202.117,70.587Z" transform="translate(-46.105 -45.578)" fill="#7360f2"/>
    <path id="Path_107671" data-name="Path 107671" d="M480.624,240.266a1.471,1.471,0,0,0-1.534-1.586" transform="translate(-328.766 -210.081)" fill="none" stroke="#fff" stroke-linecap="round" stroke-linejoin="round" stroke-width="0.5"/>
    <path id="Path_107672" data-name="Path 107672" d="M469.54,196.845a3.241,3.241,0,0,0-.833-2.351,3.458,3.458,0,0,0-2.407-1.054" transform="translate(-316.365 -166.218)" fill="none" stroke="#fff" stroke-linecap="round" stroke-linejoin="round" stroke-width="0.5"/>
    <path id="Path_107673" data-name="Path 107673" d="M456.481,154.974a5.181,5.181,0,0,0-1.459-3.845,4.982,4.982,0,0,0-3.582-1.419" transform="translate(-301.958 -123.82)" fill="none" stroke="#fff" stroke-linecap="round" stroke-linejoin="round" stroke-width="0.5"/>
    <path id="Path_107674" data-name="Path 107674" d="M285.275,167.668a.7.7,0,0,0,.555-.209l.379-.477a.833.833,0,0,1,1.055-.146,11.156,11.156,0,0,1,.941.6c.287.211.873.7.875.7a.724.724,0,0,1,.154.948s0,.006,0,.008a3.951,3.951,0,0,1-.788.971s0,0-.007.006a1.554,1.554,0,0,1-.8.387.538.538,0,0,1-.117.007,1.06,1.06,0,0,1-.34-.052l-.009-.012a11.639,11.639,0,0,1-2.2-1.018,13.1,13.1,0,0,1-1.849-1.221,9.64,9.64,0,0,1-.832-.737l-.028-.028-.028-.028h0l-.028-.028-.028-.028a9.655,9.655,0,0,1-.737-.832,13.1,13.1,0,0,1-1.221-1.849,11.631,11.631,0,0,1-1.018-2.2l-.012-.009a1.069,1.069,0,0,1-.052-.34.515.515,0,0,1,.007-.117,1.584,1.584,0,0,1,.388-.8s0,0,.005-.007a3.94,3.94,0,0,1,.971-.788l.008,0a.726.726,0,0,1,.948.152s.491.589.7.875a11.173,11.173,0,0,1,.6.942.833.833,0,0,1-.146,1.055l-.477.379a.7.7,0,0,0-.209.555A4.965,4.965,0,0,0,285.275,167.668Z" transform="translate(-134.9 -134.044)" fill="#fff"/>
  </g>
</svg>
