<svg id="whatsapp" xmlns="http://www.w3.org/2000/svg" xmlns:xlink="http://www.w3.org/1999/xlink" width="20.444" height="20.535" viewBox="0 0 20.444 20.535">
  <defs>
    <clipPath id="clip-path">
      <rect id="Rectangle_1760" data-name="Rectangle 1760" width="20.444" height="20.535" fill="none"/>
    </clipPath>
    <clipPath id="clip-path-2">
      <path id="Path_107666" data-name="Path 107666" d="M31.788,36.06h0m0,0h0m-9.714-9.718a9.692,9.692,0,0,0,1.3,4.855l-1.378,5.032,5.149-1.35a9.711,9.711,0,0,0,4.642,1.182h0a9.714,9.714,0,1,0-9.714-9.718" transform="translate(-21.992 -16.632)" fill="none"/>
    </clipPath>
  </defs>
  <g id="Group_24092" data-name="Group 24092">
    <g id="Group_24091" data-name="Group 24091" clip-path="url(#clip-path)">
      <path id="Path_107665" data-name="Path 107665" d="M17.465,2.985A10.18,10.18,0,0,0,1.444,15.263L0,20.536l5.4-1.415A10.172,10.172,0,0,0,10.26,20.36h0a10.18,10.18,0,0,0,7.2-17.375m-7.2,15.656h0a8.45,8.45,0,0,1-4.306-1.179l-.309-.183-3.2.84L3.3,15l-.2-.32a8.461,8.461,0,1,1,7.167,3.964" transform="translate(0 -0.001)" fill="#e0e0e0"/>
    </g>
  </g>
  <g id="Group_24094" data-name="Group 24094" transform="translate(0.467 0.353)">
    <g id="Group_24093" data-name="Group 24093" clip-path="url(#clip-path-2)">
      <rect id="Rectangle_1761" data-name="Rectangle 1761" width="19.51" height="19.597" transform="translate(0 0)" fill="#2bb826"/>
    </g>
  </g>
  <g id="Group_24096" data-name="Group 24096">
    <g id="Group_24095" data-name="Group 24095" clip-path="url(#clip-path)">
      <path id="Path_107667" data-name="Path 107667" d="M245.025,255.284c-.188-.419-.387-.427-.566-.434-.147-.006-.314-.006-.482-.006a.924.924,0,0,0-.67.315,2.818,2.818,0,0,0-.88,2.1,4.891,4.891,0,0,0,1.027,2.6,10.321,10.321,0,0,0,4.295,3.795c2.124.838,2.556.671,3.017.629a2.539,2.539,0,0,0,1.7-1.2,2.1,2.1,0,0,0,.147-1.2c-.063-.1-.23-.168-.482-.293s-1.487-.734-1.718-.818-.4-.126-.566.126-.649.818-.8.985-.293.189-.545.063a6.879,6.879,0,0,1-2.022-1.248,7.573,7.573,0,0,1-1.4-1.741c-.147-.251-.016-.388.11-.513s.251-.293.377-.44a1.724,1.724,0,0,0,.251-.419.463.463,0,0,0-.021-.44c-.063-.126-.551-1.369-.775-1.866" transform="translate(-237.276 -249.429)" fill="#fff"/>
      <path id="Path_107668" data-name="Path 107668" d="M22.786,3.04A10.063,10.063,0,0,0,6.95,15.177L5.522,20.39l5.334-1.4a10.056,10.056,0,0,0,4.808,1.225h0A10.063,10.063,0,0,0,22.786,3.04M15.669,18.517h0a8.353,8.353,0,0,1-4.257-1.166L11.1,17.17,7.938,18l.845-3.085-.2-.316a8.364,8.364,0,1,1,7.085,3.918" transform="translate(-5.405 -0.088)" fill="#fff"/>
    </g>
  </g>
</svg>
